<?xml version="1.0" standalone="no"?>
<!DOCTYPE svg PUBLIC "-//W3C//DTD SVG 20010904//EN"
 "http://www.w3.org/TR/2001/REC-SVG-20010904/DTD/svg10.dtd">
<svg version="1.0" xmlns="http://www.w3.org/2000/svg"
 width="508.000000pt" height="508.000000pt" viewBox="0 0 508.000000 508.000000"
 preserveAspectRatio="xMidYMid meet">
<metadata>
Created by potrace 1.14, written by Peter Selinger 2001-2017
</metadata>
<g transform="translate(0.000000,508.000000) scale(0.100000,-0.100000)"
fill="#000000" stroke="none">
<path d="M2337 4729 c-27 -4 -54 -15 -60 -24 -10 -12 -36 -16 -122 -19 -127
-4 -205 -22 -205 -47 0 -18 30 -49 49 -49 7 0 10 -4 6 -9 -3 -5 5 -11 17 -13
13 -2 22 -9 21 -16 -2 -7 7 -12 21 -12 14 0 28 -4 31 -10 3 -5 15 -10 26 -10
11 0 27 -7 35 -15 9 -8 28 -15 44 -15 16 0 30 -7 34 -15 3 -9 18 -15 36 -15
17 0 39 -9 50 -20 13 -13 33 -20 56 -20 19 0 33 -4 30 -9 -7 -10 46 -31 79
-31 13 0 25 -6 28 -14 3 -7 26 -19 52 -25 26 -7 53 -18 61 -26 7 -7 32 -16 54
-20 22 -4 46 -13 54 -20 7 -8 38 -22 67 -31 30 -10 56 -21 59 -25 8 -11 76
-39 94 -39 8 0 32 -11 52 -25 20 -13 52 -27 73 -31 20 -4 44 -15 53 -24 9 -10
40 -26 69 -35 29 -10 67 -28 86 -41 19 -12 50 -28 70 -35 20 -6 51 -22 70 -35
19 -13 50 -26 69 -30 19 -3 38 -12 42 -19 8 -14 101 -65 118 -65 6 0 19 -9 28
-19 10 -11 40 -29 68 -41 28 -12 59 -30 70 -40 10 -9 35 -26 56 -36 20 -11 59
-36 87 -56 27 -21 53 -38 57 -38 4 0 31 -18 60 -40 29 -22 56 -40 59 -40 3 0
25 -18 49 -40 24 -22 49 -40 57 -40 7 0 13 -6 13 -14 0 -7 17 -25 38 -38 33
-22 67 -55 177 -172 37 -39 95 -120 95 -133 0 -7 5 -13 10 -13 6 0 10 -7 10
-15 0 -8 4 -15 9 -15 7 0 25 -44 18 -45 -1 -1 5 -12 14 -26 9 -14 19 -34 22
-44 4 -17 5 -16 6 4 2 48 -77 347 -116 441 -148 350 -340 617 -558 777 -17 12
-50 36 -75 55 -94 69 -164 113 -242 149 -27 12 -48 25 -48 30 0 4 -13 10 -29
14 -16 3 -43 17 -62 31 -18 13 -37 24 -43 24 -5 0 -42 15 -80 34 -39 19 -89
39 -111 46 -22 7 -53 18 -70 25 -47 19 -136 51 -183 65 -24 8 -46 18 -49 23
-4 6 -1 7 7 2 9 -5 11 -4 6 4 -6 9 -11 9 -22 0 -10 -8 -14 -8 -14 0 0 6 -10
11 -23 11 -13 0 -27 4 -33 9 -5 5 -29 12 -54 15 -93 11 -184 26 -215 34 -34 8
-257 10 -308 1z"/>
<path d="M3020 4680 c0 -10 54 -30 83 -30 17 0 26 -4 22 -10 -4 -6 -3 -10 2
-9 4 1 11 0 16 -1 11 -4 19 -6 52 -14 17 -4 42 -14 58 -22 15 -9 39 -17 53
-20 13 -2 52 -18 86 -34 33 -16 64 -27 69 -25 4 3 14 -2 22 -10 12 -11 17 -12
20 -2 4 9 6 9 6 0 1 -7 6 -13 12 -13 6 0 17 -7 26 -15 8 -8 19 -13 24 -10 5 4
9 1 9 -4 0 -6 7 -11 15 -11 8 0 15 -5 15 -11 0 -5 4 -8 9 -4 5 3 12 1 16 -5 4
-6 11 -8 16 -5 5 4 9 2 9 -3 0 -5 7 -9 16 -9 12 0 10 5 -7 18 -13 10 -27 15
-31 13 -5 -3 -11 2 -14 10 -3 9 -10 14 -14 11 -5 -3 -15 2 -23 10 -9 8 -19 15
-22 15 -4 0 -26 13 -49 28 -40 27 -63 39 -156 80 -41 18 -79 32 -105 38 -5 2
-24 7 -42 12 -17 6 -34 8 -37 4 -3 -3 -6 1 -6 8 0 7 -3 11 -6 8 -3 -4 -21 0
-40 8 -32 14 -104 17 -104 4z"/>
<path d="M1836 4623 c-3 -4 -13 -8 -21 -10 -47 -10 -105 -34 -105 -43 0 -8 12
-5 85 25 11 5 23 9 27 9 9 1 34 26 27 26 -3 0 -9 -3 -13 -7z"/>
<path d="M1622 4534 c-84 -41 -92 -57 -11 -21 48 22 103 56 89 56 -3 0 -38
-16 -78 -35z"/>
<path d="M1520 4480 c-8 -5 -12 -12 -9 -15 4 -3 12 1 19 10 14 17 11 19 -10 5z"/>
<path d="M1435 4424 c-109 -74 -133 -92 -220 -163 -104 -86 -250 -234 -271
-273 -8 -16 -19 -28 -24 -28 -24 0 -145 -193 -133 -213 2 -4 -1 -14 -7 -22
-10 -12 -9 -15 4 -15 21 0 21 -26 -1 -39 -17 -10 -17 -10 0 -11 20 0 24 -36 5
-43 -8 -4 -7 -6 3 -6 21 -1 34 -32 17 -42 -12 -8 -5 -23 13 -25 22 -3 23 -5
11 -13 -19 -11 69 -115 145 -173 172 -130 443 -282 733 -413 58 -26 137 -62
175 -80 39 -17 84 -35 100 -39 16 -4 117 -45 224 -90 108 -46 207 -87 221 -91
14 -4 43 -15 65 -25 38 -17 183 -74 440 -175 66 -26 138 -56 160 -66 22 -10
117 -51 210 -92 486 -213 776 -387 901 -539 20 -24 42 -52 51 -62 24 -29 60
-107 67 -144 5 -28 3 -35 -14 -39 -11 -3 -20 -12 -20 -20 0 -9 6 -13 15 -9 8
3 15 1 15 -4 0 -6 -7 -10 -16 -10 -12 0 -15 -6 -10 -24 3 -14 1 -26 -6 -28 -6
-2 -9 -9 -7 -16 5 -14 69 80 69 101 0 8 7 20 15 27 8 7 15 21 15 31 0 11 4 19
8 19 4 0 18 19 30 43 13 23 34 62 48 86 78 138 150 360 189 586 16 93 18 225
3 225 -4 0 -8 6 -8 14 0 17 -29 75 -31 61 -1 -5 0 -14 1 -20 1 -5 -10 1 -24
14 -20 19 -23 27 -15 38 9 10 7 13 -7 13 -11 0 -30 16 -43 36 -15 21 -35 37
-52 41 -16 3 -46 21 -68 39 -21 19 -44 34 -49 34 -5 0 -14 6 -21 13 -11 13
-78 48 -159 82 -24 10 -67 34 -95 52 -29 19 -74 40 -100 48 -26 8 -64 23 -85
34 -20 11 -55 25 -77 32 -22 6 -85 35 -141 65 -56 29 -114 55 -130 58 -16 3
-45 12 -64 20 -19 8 -60 22 -90 31 -30 9 -81 30 -113 46 -32 16 -63 29 -69 29
-6 0 -59 22 -117 49 -58 27 -133 56 -166 66 -32 9 -68 23 -79 31 -11 8 -30 14
-41 14 -11 0 -51 14 -90 31 -38 17 -104 44 -145 59 -100 38 -260 104 -285 118
-11 6 -55 27 -98 46 -537 246 -778 387 -837 488 -12 21 -19 42 -15 47 3 5 2
12 -3 15 -6 4 -8 46 -3 78 1 3 10 4 21 1 15 -4 19 -1 15 9 -3 8 0 20 7 26 13
10 18 12 40 12 6 0 8 3 5 7 -8 7 12 34 22 30 3 -2 17 7 30 20 34 32 15 27 -44
-13z"/>
<path d="M635 3510 c-18 -20 -18 -21 1 -15 16 6 15 3 -5 -14 -13 -12 -19 -21
-15 -21 5 0 1 -5 -8 -11 -10 -5 -18 -21 -18 -35 0 -15 4 -23 11 -19 6 4 8 13
5 21 -3 8 -2 13 2 13 21 -3 30 3 27 19 -1 9 6 26 16 37 11 12 15 25 10 33 -6
9 -12 7 -26 -8z"/>
<path d="M562 3347 c-6 -7 -13 -25 -16 -41 -3 -15 -11 -46 -19 -69 -33 -96
-35 -107 -25 -107 5 0 3 -7 -5 -15 -9 -8 -18 -34 -22 -57 -4 -24 -9 -52 -11
-63 -2 -11 -6 -47 -9 -80 -3 -33 -8 -78 -11 -100 -10 -81 -4 -372 9 -460 15
-93 58 -212 76 -208 6 2 8 -4 5 -12 -3 -8 4 -24 16 -37 15 -17 19 -18 15 -5
-4 9 -4 17 0 17 9 0 44 -42 45 -53 0 -5 15 -23 33 -42 17 -18 54 -56 82 -85
27 -29 67 -66 89 -83 30 -24 36 -33 23 -35 -21 -4 -22 -18 -1 -26 8 -3 12 -2
9 4 -14 23 25 7 59 -23 39 -36 46 -50 19 -40 -10 4 -14 2 -10 -4 4 -6 18 -10
32 -10 32 -1 116 -56 92 -61 -10 -2 -17 -8 -17 -14 0 -6 10 -8 25 -4 19 5 37
-2 72 -26 26 -17 42 -33 35 -36 -22 -7 -12 -24 11 -19 29 8 122 -44 106 -60
-7 -7 -6 -12 5 -16 9 -4 16 -2 16 4 0 6 27 -4 60 -22 33 -17 57 -36 54 -40 -3
-5 -11 -7 -17 -3 -7 3 -3 -2 7 -10 12 -9 22 -12 26 -6 8 13 92 -31 86 -47 -3
-8 1 -10 11 -6 11 4 14 2 9 -5 -7 -11 -3 -13 43 -16 8 -1 16 -6 18 -13 3 -7
10 -10 18 -7 7 3 16 0 21 -7 5 -8 3 -10 -6 -4 -9 5 -11 4 -6 -4 4 -6 12 -9 17
-5 6 3 17 -4 26 -15 9 -14 21 -20 33 -16 11 3 29 -4 46 -18 26 -21 91 -60 104
-62 3 0 34 -15 70 -32 36 -17 92 -43 125 -58 33 -15 78 -35 100 -45 22 -10 72
-32 110 -48 39 -17 96 -42 129 -56 32 -14 62 -26 67 -26 5 0 28 -9 52 -19 23
-11 74 -31 112 -46 79 -30 156 -61 200 -81 17 -7 42 -16 58 -20 15 -3 27 -10
27 -15 0 -5 9 -9 20 -9 12 0 32 -7 45 -16 13 -9 29 -13 35 -9 5 3 13 -1 16 -9
3 -9 17 -16 30 -16 13 0 24 -4 24 -10 0 -5 7 -10 15 -10 8 0 15 -4 15 -10 0
-5 7 -10 15 -10 8 0 15 -3 15 -7 0 -5 7 -16 14 -25 11 -15 18 -16 45 -7 17 6
31 17 31 24 0 7 15 16 33 20 17 3 41 10 52 14 11 4 45 16 75 25 202 65 496
247 501 311 0 6 5 16 11 23 7 8 7 12 -2 12 -10 0 -10 3 0 15 9 11 9 15 1 15
-7 0 -10 4 -6 10 9 15 -20 73 -56 110 -50 52 -102 89 -219 159 -58 34 -112 67
-120 72 -26 15 -332 167 -410 202 -41 19 -104 48 -140 65 -36 17 -78 34 -95
38 -16 4 -43 15 -60 25 -16 10 -57 28 -90 40 -33 12 -87 34 -120 49 -33 15
-116 47 -185 70 -69 23 -152 56 -185 72 -33 17 -87 41 -120 54 -33 12 -83 34
-110 47 -28 14 -71 31 -95 38 -25 7 -50 16 -56 21 -19 14 -152 67 -181 71 -16
3 -108 44 -206 91 -97 47 -183 86 -190 86 -7 0 -17 4 -23 9 -18 18 -85 51
-102 51 -10 0 -47 18 -83 40 -35 22 -80 48 -99 56 -19 9 -38 21 -41 26 -7 11
-37 30 -85 52 -17 8 -36 22 -43 30 -7 9 -17 14 -21 11 -10 -6 -131 114 -150
149 -8 15 -22 32 -32 37 -10 6 -16 14 -13 19 9 15 -14 50 -32 50 -12 0 -13 3
-3 15 13 15 5 55 -11 55 -6 0 -5 8 1 21 9 15 8 24 -2 37 -9 11 -10 14 0 8 7
-4 12 -1 13 8 2 24 4 30 11 41 6 10 36 157 37 188 3 43 6 57 11 57 4 0 7 7 7
15 0 18 -2 18 -15 2z"/>
<path d="M4412 3250 c12 -18 38 -35 38 -25 0 9 -34 45 -42 45 -5 0 -3 -9 4
-20z"/>
<path d="M4487 3165 c10 -13 22 -25 26 -25 4 0 0 11 -10 25 -10 13 -22 25 -26
25 -4 0 0 -11 10 -25z"/>
<path d="M4530 3115 c1 -14 38 -61 43 -55 3 3 -6 19 -19 35 -13 17 -24 26 -24
20z"/>
<path d="M4580 3034 c0 -5 7 -18 15 -28 12 -16 15 -17 15 -4 0 8 -7 21 -15 28
-8 7 -15 9 -15 4z"/>
<path d="M4657 2895 c-4 -8 -2 -17 3 -20 6 -4 10 3 10 14 0 25 -6 27 -13 6z"/>
<path d="M4648 2743 c7 -3 16 -2 19 1 4 3 -2 6 -13 5 -11 0 -14 -3 -6 -6z"/>
<path d="M578 2054 c6 -11 20 -28 33 -39 l23 -20 -23 32 c-26 38 -49 56 -33
27z"/>
<path d="M650 1966 c0 -2 7 -9 15 -16 13 -11 14 -10 9 4 -5 14 -24 23 -24 12z"/>
<path d="M736 1877 c3 -10 9 -15 12 -12 3 3 0 11 -7 18 -10 9 -11 8 -5 -6z"/>
<path d="M780 1836 c0 -2 8 -10 18 -17 15 -13 16 -12 3 4 -13 16 -21 21 -21
13z"/>
<path d="M622 1745 c15 -38 28 -54 28 -34 0 7 -9 25 -20 39 l-21 25 13 -30z"/>
<path d="M670 1646 c0 -15 25 -56 33 -56 6 0 7 -3 4 -6 -3 -4 3 -18 13 -32 11
-13 20 -28 20 -33 0 -14 138 -200 213 -288 146 -170 428 -392 622 -490 89 -44
233 -103 211 -86 -11 8 -26 15 -33 15 -7 0 -13 5 -13 10 0 13 12 13 44 0 16
-6 26 -17 26 -29 0 -16 31 -34 50 -29 3 1 16 -5 30 -12 14 -8 60 -24 103 -36
61 -17 77 -19 77 -8 0 16 28 18 48 5 8 -4 13 -12 11 -17 -4 -15 33 -17 42 -2
7 10 9 9 9 -4 0 -10 3 -18 8 -18 4 0 72 -7 152 -14 198 -20 366 -24 240 -5
-64 9 -70 10 -220 45 -63 14 -129 33 -147 40 -17 8 -42 14 -56 14 -14 0 -28 4
-31 9 -3 5 -21 12 -40 15 -20 4 -48 13 -63 21 -15 8 -35 15 -43 15 -8 0 -31 8
-50 19 -19 10 -50 22 -67 25 -18 4 -33 12 -33 16 0 5 -18 14 -40 20 -23 6 -62
22 -87 35 -25 14 -52 25 -58 25 -7 0 -18 6 -24 14 -7 8 -32 21 -57 30 -24 8
-52 22 -60 31 -9 9 -29 19 -45 22 -15 3 -36 14 -45 24 -9 11 -23 19 -29 19
-20 0 -235 146 -298 203 -196 175 -300 290 -344 381 -9 20 -21 36 -25 36 -5 0
-7 4 -4 9 3 5 -1 14 -9 21 -8 7 -15 18 -15 26 0 7 -4 16 -10 19 -5 3 -10 4
-10 1z m905 -884 c-3 -3 -11 0 -18 7 -9 10 -8 11 6 5 10 -3 15 -9 12 -12z
m150 -62 c3 -5 -1 -10 -9 -10 -8 0 -18 5 -21 10 -3 6 1 10 9 10 8 0 18 -4 21
-10z m140 -52 c36 -16 31 -28 -7 -17 -18 5 -34 9 -35 9 -2 0 -3 5 -3 10 0 13
13 13 45 -2z m84 -24 c17 -4 31 -13 31 -20 0 -17 0 -17 -44 1 -54 23 -48 31
13 19z m80 -25 c38 -13 41 -30 4 -23 -32 6 -43 12 -43 25 0 11 0 11 39 -2z"/>
<path d="M4290 1541 c0 -5 5 -13 10 -16 6 -3 10 -2 10 4 0 5 -4 13 -10 16 -5
3 -10 2 -10 -4z"/>
<path d="M4250 1390 c0 -5 5 -10 11 -10 5 0 7 5 4 10 -3 6 -8 10 -11 10 -2 0
-4 -4 -4 -10z"/>
<path d="M4215 1339 c-4 -6 -5 -12 -2 -15 2 -3 7 2 10 11 7 17 1 20 -8 4z"/>
<path d="M4180 1310 c0 -5 7 -10 16 -10 8 0 12 5 9 10 -3 6 -10 10 -16 10 -5
0 -9 -4 -9 -10z"/>
<path d="M4140 1260 c0 -5 4 -10 9 -10 6 0 13 5 16 10 3 6 -1 10 -9 10 -9 0
-16 -4 -16 -10z"/>
<path d="M2088 553 c7 -3 16 -2 19 1 4 3 -2 6 -13 5 -11 0 -14 -3 -6 -6z"/>
</g>
</svg>
